<svg width="10" height="10" viewBox="0 0 10 10" fill="none" xmlns="http://www.w3.org/2000/svg">
<g clip-path="url(#clip0_34_26)">
<path d="M6.49451 4.99982L9.68998 1.80435C10.1029 1.39148 10.1029 0.72251 9.68998 0.309647C9.27712 -0.103216 8.60815 -0.103216 8.1953 0.309647L4.99982 3.50548L1.80435 0.310007C1.39148 -0.102856 0.72251 -0.102856 0.309647 0.310007C-0.103216 0.72287 -0.103216 1.39184 0.309647 1.80471L3.50512 5.00018L0.309647 8.19566C-0.103216 8.60852 -0.103216 9.2775 0.309647 9.69034C0.72251 10.1032 1.39148 10.1032 1.80435 9.69034L4.99982 6.49488L8.1953 9.69034C8.60816 10.1032 9.27714 10.1032 9.68998 9.69034C10.1029 9.27748 10.1029 8.60851 9.68998 8.19566L6.49451 4.99982Z" fill="white"/>
</g>
<defs>
<clipPath id="clip0_34_26">
<rect width="10" height="10" fill="white"/>
</clipPath>
</defs>
</svg>
