<svg width="22" height="22" viewBox="0 0 22 22" fill="none" xmlns="http://www.w3.org/2000/svg">
<g clip-path="url(#clip0_111_222)">
<path d="M-0.000252282 10.9995C-0.000467121 10.8779 0.0476577 10.7612 0.133596 10.675L8.38363 2.42505C8.56569 2.24918 8.85586 2.25425 9.03174 2.43631C9.20327 2.61394 9.20327 2.89552 9.03174 3.07311L1.1062 10.9995L9.03173 18.925C9.20761 19.1071 9.20254 19.3972 9.02048 19.5731C8.84284 19.7447 8.56127 19.7447 8.38363 19.5731L0.133596 11.3231C0.0479155 11.2373 -0.000209318 11.1209 -0.000252282 10.9995Z" fill="white"/>
<path d="M-1.92738e-06 10.9995C-1.91632e-06 10.7464 0.205217 10.5411 0.458345 10.5411L21.5417 10.5411C21.7948 10.5412 22 10.7464 22 10.9995C22 11.2526 21.7948 11.4579 21.5417 11.4579L0.458302 11.4579C0.205216 11.4579 -1.93845e-06 11.2526 -1.92738e-06 10.9995Z" fill="white"/>
</g>
<defs>
<clipPath id="clip0_111_222">
<rect width="22" height="22" fill="white" transform="translate(22) rotate(90)"/>
</clipPath>
</defs>
</svg>
