<svg width="1418" height="749" viewBox="0 0 1418 749" fill="none" xmlns="http://www.w3.org/2000/svg">
<path d="M364.437 162C364.437 162 320.937 186.5 312.437 224.5C303.937 262.5 328 321.5 328 321.5" stroke="#3B3B3B" stroke-width="2" stroke-linecap="round"/>
<path d="M269 253C269 253 294.5 298 288 319C281.5 340 260.5 358 269 375.5C277.5 393 302.5 416 302.5 416" stroke="#3B3B3B" stroke-width="2" stroke-linecap="round"/>
<path d="M1101 6C1101 6 1180 18 1217 60.5C1254 103 1259.66 138 1243.5 163.5C1227.34 189 1217 178.5 1196 198C1175 217.5 1154 249 1160.5 274.5C1167 300 1211.5 366 1211.5 366" stroke="#3B3B3B" stroke-width="2" stroke-linecap="round"/>
<path d="M1247.5 412C1247.5 412 1223.5 465 1195.5 477.5C1167.5 490 1140 477.5 1117.5 493C1095 508.5 1100.5 534 1097.5 555C1094.5 576 1075 592.5 1075 592.5" stroke="#3B3B3B" stroke-width="2" stroke-linecap="round"/>
<path d="M1215 312C1215 312 1238.5 352 1234 373.5C1229.5 395 1215 387.5 1195.5 401.5C1176 415.5 1174.5 455.5 1174.5 455.5" stroke="#3B3B3B" stroke-width="2" stroke-linecap="round"/>
<path d="M1270 164.5C1270 164.5 1232 179.5 1213 223.5C1194 267.5 1264 267.5 1290 319.5C1316 371.5 1270 433.5 1270 433.5" stroke="#3B3B3B" stroke-width="2" stroke-linecap="round"/>
<path d="M1146.5 504.5C1146.5 504.5 1120 530.5 1126.5 547C1133 563.5 1167.5 541.5 1173.5 563.5C1179.5 585.5 1113 596 1113 596" stroke="#3B3B3B" stroke-width="2" stroke-linecap="round"/>
<path d="M1249 466C1249 466 1196 478.5 1193.5 508C1191 537.5 1249 544 1249 569C1249 594 1193.5 586.5 1193.5 586.5" stroke="#3B3B3B" stroke-width="2" stroke-linecap="round"/>
<path d="M1322 354C1322 354 1364 399 1360.5 435.5C1357 472 1306.5 427 1300.5 472C1294.5 517 1318.5 499.5 1322 532C1325.5 564.5 1283.5 576 1283.5 576" stroke="#3B3B3B" stroke-width="2" stroke-linecap="round"/>
<path d="M1253.5 7.99983C1253.5 7.99983 1282.5 22.4998 1302.5 59.9998C1322.5 97.4998 1308.5 182.5 1308.5 182.5" stroke="#3B3B3B" stroke-width="2" stroke-linecap="round"/>
<path d="M1351 180.5C1351 180.5 1293 188 1285 242C1277 296 1357 356.5 1357 356.5" stroke="#3B3B3B" stroke-width="2" stroke-linecap="round"/>
<path d="M284 36C284 36 224 25 193.5 36C163 47 154 58 153.5 95.5C153 133 169.5 172 169.5 172" stroke="#3B3B3B" stroke-width="2" stroke-linecap="round"/>
<path d="M161.5 208.5C161.5 208.5 122.5 228.5 109.5 242.5C96.5 256.5 86.0581 284 90.5 300C94.9419 316 119.5 344 123 372C126.5 400 101.5 395.5 105.5 427.5C109.5 459.5 168.5 495.5 168.5 495.5" stroke="#3B3B3B" stroke-width="2" stroke-linecap="round"/>
<path d="M149 433C149 433 183.5 448 197.5 470.5C211.5 493 187 512.5 197.5 542C208 571.5 249 576.5 249 576.5" stroke="#3B3B3B" stroke-width="2" stroke-linecap="round"/>
<path d="M312.5 571.5C312.5 571.5 324.5 561.5 345 566.5C365.5 571.5 377.5 591 392.5 598C407.5 605 431.5 598 431.5 598" stroke="#3B3B3B" stroke-width="2" stroke-linecap="round"/>
<path d="M126.5 502C126.5 502 166.5 516.5 172.5 537C178.5 557.5 145 544 143.5 562.5C142 581 190.5 596.5 190.5 596.5" stroke="#3B3B3B" stroke-width="2" stroke-linecap="round"/>
<path d="M1104.5 171C1104.5 171 1024.5 231.5 1043 277.5C1061.5 323.5 1124 386.5 1104.5 420.5C1085 454.5 1004.5 487.5 1004.5 487.5" stroke="#3B3B3B" stroke-width="2" stroke-linecap="round"/>
<path d="M979.5 386C979.5 386 886.5 399 827.5 432.5C768.5 466 766.5 497.5 768 531.5C769.5 565.5 782.999 578 784 599C785 620 768 623 768 623" stroke="#3B3B3B" stroke-width="2" stroke-linecap="round"/>
<path d="M890 155C890 155 813 159.5 793.5 197.5C774 235.5 811.5 248.5 820 285C828.5 321.5 793.5 375 793.5 375" stroke="#3B3B3B" stroke-width="2" stroke-linecap="round"/>
<path d="M156 346.5C156 346.5 247 389.5 276 447C305 504.5 296.5 524 314.5 539C332.5 554 375 546 399.5 554C424 562 455 605 455 605" stroke="#3B3B3B" stroke-width="2" stroke-linecap="round"/>
<path d="M484 52C484 52 619.5 62 662.5 92.5C705.5 123 675.5 144.5 676.5 172.5C677.5 200.5 775.5 258 775.5 258" stroke="#3B3B3B" stroke-width="2" stroke-linecap="round"/>
<path d="M608 107.5C608 107.5 561 101 524.5 120.5C488 140 477 177.5 470 191.5C463 205.5 439 216.5 439 216.5" stroke="#3B3B3B" stroke-width="2" stroke-linecap="round"/>
<path d="M404 52.5C404 52.5 408 71.5 392.5 103C377 134.5 333 103 307.5 125C282 147 307.5 159.5 307.5 181C307.5 202.5 288 214 288 214" stroke="#3B3B3B" stroke-width="2" stroke-linecap="round"/>
<path d="M262 77.5C262 77.5 190.5 109.5 185.5 142.5C180.5 175.5 196 211.5 195.5 234.5C195 257.5 173 267 173.5 292.5C174 318 223 354 223 354" stroke="#3B3B3B" stroke-width="2" stroke-linecap="round"/>
<path d="M289.5 89.5C289.5 89.5 247 121 247 141C247 161 265.5 183 265.5 193.5C265.5 204 247 210.5 247 210.5" stroke="#3B3B3B" stroke-width="2" stroke-linecap="round"/>
<path d="M725 45.5C725 45.5 756.5 89.5 755 112C753.5 134.5 734.5 127 741 157.5C747.5 188 770 216.5 770 216.5" stroke="#3B3B3B" stroke-width="2" stroke-linecap="round"/>
<path d="M907 81C907 81 983.5 111.5 985.5 132.5C987.5 153.5 955 144 957 188C959 232 1016 343 1011 396C1006 449 928.5 478.5 928.5 478.5" stroke="#3B3B3B" stroke-width="2" stroke-linecap="round"/>
<path d="M953 266.5C953 266.5 958.5 318.5 940.5 338C922.5 357.5 871 346.5 853 357.5C835 368.5 790 426.5 790 426.5" stroke="#3B3B3B" stroke-width="2" stroke-linecap="round"/>
<path d="M937 439C937 439 896 443 875.5 480C855 517 923 499.5 916.5 537C910 574.5 858 602.5 858 602.5" stroke="#3B3B3B" stroke-width="2" stroke-linecap="round"/>
<path d="M199 414.5C199 414.5 213.5 475.5 229.5 508.5C245.5 541.5 255.5 528.5 271.5 541.5C287.5 554.5 278 563 287.5 579.5C297 596 374.5 609.5 374.5 609.5" stroke="#3B3B3B" stroke-width="2" stroke-linecap="round"/>
<path d="M330.5 394C330.5 394 314 441.5 330.5 473C347 504.5 389 518 389 518" stroke="#3B3B3B" stroke-width="2" stroke-linecap="round"/>
<path d="M787 1.5C787 1.5 835.5 30.5 839.5 65.5C843.5 100.5 797 139.5 797 139.5" stroke="#3B3B3B" stroke-width="2" stroke-linecap="round"/>
<path d="M1026.5 36.5C1026.5 36.5 1056 63.5 1055.5 106.5C1055 149.5 1014.5 194 1014.5 194" stroke="#3B3B3B" stroke-width="2" stroke-linecap="round"/>
<path d="M999.5 460C999.5 460 960.5 479 957 518C953.5 557 999.5 589.5 999.5 589.5" stroke="#3B3B3B" stroke-width="2" stroke-linecap="round"/>
<path d="M1126.5 358C1126.5 358 1164 417.5 1152 450C1140 482.5 1109.93 462.568 1092.5 482.5C1071.81 506.168 1074 540 1069 559.5C1064 579 1033.5 589 1033.5 589" stroke="#3B3B3B" stroke-width="2" stroke-linecap="round"/>
<path d="M460 20C460 20 381.5 20 354 31.5C326.5 43 336.5 61.5 321.5 86.5C306.5 111.5 274.5 130 274.5 130" stroke="#3B3B3B" stroke-width="2" stroke-linecap="round"/>
<path d="M490 31.5C490 31.5 442 35.5 433.5 60.5C425 85.5 467.5 74 460.5 98C453.5 122 393.5 166 393.5 166" stroke="#3B3B3B" stroke-width="2" stroke-linecap="round"/>
<path d="M970.5 24C970.5 24 921 2.5 887 24C853 45.5 886 68 875.5 94C865 120 837.5 132 837.5 132" stroke="#3B3B3B" stroke-width="2" stroke-linecap="round"/>
<path d="M1116 63C1116 63 1188.5 99 1188.5 153C1188.5 207 1116 173 1116 225C1116 277 1174.5 369.5 1174.5 369.5" stroke="#3B3B3B" stroke-width="2" stroke-linecap="round"/>
<path d="M859 458C859 458 814.5 507 810.5 539C806.5 571 843 575 839.5 602.5C836 630 768 672 768 672" stroke="#3B3B3B" stroke-width="2" stroke-linecap="round"/>
<path d="M743 499C743 499 721 541.5 719 567.5C717 593.5 743 578 743 593.5C743 609 718.5 639 698 664C677.5 689 643.5 702.5 643.5 702.5" stroke="#3B3B3B" stroke-width="2" stroke-linecap="round"/>
<path d="M458 573C458 573 483.5 584 493.5 596C503.5 608 492.5 620.5 503.5 630C514.5 639.5 535.5 626.5 557 649.5C578.5 672.5 588 701.5 588 701.5" stroke="#3B3B3B" stroke-width="2" stroke-linecap="round"/>
<path d="M232 542.5C232 542.5 263 555.5 268 568.5C273 581.5 254.5 579 253.5 592.5C252.5 606 307 620 326.5 631.5C346 643 346 672 346 672" stroke="#3B3B3B" stroke-width="2" stroke-linecap="round"/>
<path d="M146.5 9.5C146.5 9.5 75.5 49 76.5 78C77.5 107 127.5 92 127.5 129C127.5 166 33.5 231 33.5 231" stroke="#3B3B3B" stroke-width="2" stroke-linecap="round"/>
<path d="M58.5 254C58.5 254 11.5 291.5 35 313.5C58.5 335.5 94.5 312.5 93 348C91.5 383.5 49 391.5 42 431.5C35 471.5 102.5 537.5 102.5 537.5" stroke="#3B3B3B" stroke-width="2" stroke-linecap="round"/>
<path d="M1333 53.5C1349 72.5 1396.5 113 1401 144.5C1405.5 176 1348.5 190.5 1348.5 222.5C1348.5 254.5 1376 300.5 1376 300.5" stroke="#3B3B3B" stroke-width="2" stroke-linecap="round"/>
<path d="M1390.5 245.5C1390.5 245.5 1411.5 295 1404.5 320C1397.5 345 1378 348.5 1372.5 375.5C1367 402.5 1417 410.5 1417 446.5C1417 482.5 1362 472 1346.5 497C1331 522 1367 568 1367 568" stroke="#3B3B3B" stroke-width="2" stroke-linecap="round"/>
<path d="M1.5 467C1.5 467 47.5 509.5 57 540.5C66.5 571.5 20 563.5 17.5 582.5C15 601.5 94.5 610 130.5 615" stroke="#3B3B3B" stroke-width="2" stroke-linecap="round"/>
<path d="M87 559.5C87 559.5 122.5 579 145 598C167.5 617 151.5 635 167.5 639C183.5 643 210 619.5 233.5 622C257 624.5 298.5 665.5 298.5 665.5" stroke="#3B3B3B" stroke-width="2" stroke-linecap="round"/>
<path d="M348 621C348 621 393 613.5 422.5 621C452 628.5 371.5 639.5 397 652C422.5 664.5 520.5 673.5 520.5 673.5" stroke="#3B3B3B" stroke-width="2" stroke-linecap="round"/>
<path d="M573.5 620.5C573.5 620.5 636.5 639.5 632.5 652.5C628.5 665.5 600.5 643 601 662.5C601.5 682 639.5 729 639.5 729" stroke="#3B3B3B" stroke-width="2" stroke-linecap="round"/>
<path d="M1400.5 513.5C1400.5 513.5 1420.5 544 1408.5 569.5C1396.5 595 1352.5 594 1331 611.5C1309.5 629 1370 612 1357 634.5C1344 657 1264 671 1264 671" stroke="#3B3B3B" stroke-width="2" stroke-linecap="round"/>
<path d="M937 548C937 548 960 564 959 579.5C958 595 921.5 584.5 901.5 599C881.5 613.5 968.5 603 947.5 628C926.5 653 820.5 692.5 820.5 692.5" stroke="#3B3B3B" stroke-width="2" stroke-linecap="round"/>
<path d="M1109.5 581.5C1109.5 581.5 1091.5 613.5 1060.5 620.5C1029.5 627.5 1017 601.5 989.5 613.5C962 625.5 935 648.5 945.5 661.5C956 674.5 1005.5 651.5 1042.5 656.5C1079.5 661.5 978.5 703.5 978.5 703.5" stroke="#3B3B3B" stroke-width="2" stroke-linecap="round"/>
<path d="M1311 591.5C1311 591.5 1115 593.5 1110 619C1105 644.5 1283.5 628.5 1278 639.5C1272.5 650.5 1228.5 680.5 1202.5 694.5C1176.5 708.5 1131.5 671 1100.5 672.5C1069.5 674 1058 694.5 1058 694.5" stroke="#3B3B3B" stroke-width="2" stroke-linecap="round"/>
<path d="M380 632C380 632 358.544 645 365.5 661C372.457 677 455 693.5 455 693.5" stroke="#3B3B3B" stroke-width="2" stroke-linecap="round"/>
<path d="M55 633C55 633 107 626 127 633C147 640 133.5 661 160.5 672C187.5 683 193.5 652.5 227.5 654.5C261.5 656.5 354 721 354 721" stroke="#3B3B3B" stroke-width="2" stroke-linecap="round"/>
<path d="M348.5 691C348.5 691 410.5 722.5 443 723C475.5 723.5 483.5 691 512 691C540.5 691 616 746 616 746" stroke="#3B3B3B" stroke-width="2" stroke-linecap="round"/>
<path d="M761.5 634.5C761.5 634.5 674.5 701 685 709C695.5 717 791.5 673 789.5 685.5C787.5 698 719 747.5 719 747.5" stroke="#3B3B3B" stroke-width="2" stroke-linecap="round"/>
</svg>
