<svg width="369" height="496" viewBox="0 0 369 496" fill="none" xmlns="http://www.w3.org/2000/svg">
<path d="M300.22 495.464C300.22 495.464 305.842 488.155 308.091 484.22C310.34 480.284 310.902 472.976 310.902 470.165C310.902 467.354 311.464 434.183 310.902 427.999C310.34 421.815 308.653 419.566 309.215 412.257C309.648 406.635 322.708 392.018 327.768 384.147C332.828 376.276 340.699 362.783 346.883 349.853C353.067 336.922 358.127 309.936 360.376 295.881C362.625 281.826 367.685 243.596 367.685 243.596" stroke="white" stroke-linecap="round"/>
<path d="M0.564026 271.144C0.564026 271.144 14.6192 336.922 17.4302 340.857C19.679 348.166 46.6649 384.147 58.4713 398.202C70.2776 412.257 80.9595 421.815 98.3879 433.621C115.816 445.428 135.494 450.487 147.3 453.298C159.106 456.11 173.208 457.975 185.53 459.483C197.851 460.991 210.267 459.483 210.267 459.483" stroke="white" stroke-linecap="round"/>
<path d="M154.609 340.295C149.549 341.419 142.802 347.604 142.802 347.604C142.802 347.604 175.972 372.341 183.843 372.341C191.714 372.341 202.958 368.967 208.018 368.968C213.078 368.968 226.571 372.341 233.88 370.654C241.188 368.968 264.239 344.793 264.239 344.793C264.239 344.793 237.253 329.613 228.82 329.613C220.387 329.613 214.202 336.36 208.018 336.36C201.834 336.36 191.152 327.364 183.843 327.926C176.535 328.489 171.508 334.779 163.604 339.171C159.668 340.857 154.609 340.295 154.609 340.295Z" fill="#E7A600"/>
<path d="M199.585 347.041C192.276 347.041 179.908 345.355 174.286 345.355C168.664 345.355 150.673 347.041 147.3 347.041L143.927 347.604M199.585 347.041C199.585 347.041 196.774 345.355 195.65 344.23C194.525 343.106 193.963 340.857 193.963 340.857M199.585 347.041C203.802 347.041 207.832 346.293 213.078 345.551M265.363 345.355C265.363 345.355 240.626 343.668 227.133 344.23C221.425 344.468 216.925 345.008 213.078 345.551M213.078 345.551C213.078 345.551 213.64 344.793 214.765 343.668C215.327 343.106 215.889 341.982 215.889 341.982" stroke="#240000" stroke-linecap="round"/>
<path d="M227.133 207.052C227.133 207.052 228.258 189.061 227.133 184.002C226.009 178.942 220.387 176.693 220.949 172.758C221.511 168.822 228.258 162.638 231.069 158.14C233.88 153.643 235.004 145.772 238.939 141.836C242.875 137.901 292.349 131.154 303.031 131.154C313.713 131.154 333.952 141.836 333.952 141.836C333.952 141.836 319.897 146.896 310.902 148.583C301.907 150.269 282.229 148.02 274.358 148.583C266.488 149.145 249.059 154.205 249.059 154.205" stroke="white" stroke-linecap="round"/>
<path d="M235.566 169.384C233.317 171.633 232.193 169.946 229.944 171.633C227.695 173.32 232.755 180.066 237.815 181.753C242.875 183.439 272.672 186.25 285.603 185.126C298.533 184.002 317.086 178.942 322.146 177.255C327.206 175.569 331.141 173.32 332.266 171.633C333.39 169.946 330.579 166.011 327.206 164.324C323.833 162.638 285.603 151.956 276.045 151.956C266.488 151.956 256.368 153.643 250.746 156.454C245.124 159.265 237.815 167.135 235.566 169.384Z" fill="#2656FF"/>
<path d="M245.686 176.131C245.686 176.131 238.939 178.38 237.815 177.255C236.691 176.131 237.815 171.071 240.064 169.384C242.313 167.698 251.308 163.2 254.119 162.076C256.93 160.951 269.298 155.891 273.234 155.891C277.169 155.891 288.414 159.827 290.662 160.951C292.911 162.076 299.658 167.698 299.658 168.26C299.658 168.822 291.787 171.071 289.538 171.633C287.289 172.195 276.607 173.32 273.234 173.32C269.861 173.32 255.243 171.633 252.995 171.633C250.746 171.633 245.686 176.131 245.686 176.131Z" fill="#1C31A5"/>
<path d="M252.432 171.633C250.746 171.633 243.437 171.633 244.562 170.509C245.686 169.384 254.681 163.2 257.492 162.076C260.303 160.951 263.114 160.951 265.363 159.827C267.612 158.702 269.861 157.578 273.234 157.578C276.607 157.578 287.851 162.076 290.1 163.2C292.349 164.324 295.722 167.698 295.722 168.822C295.722 169.946 294.598 170.509 290.662 171.633C286.727 172.758 278.856 173.32 273.234 173.32C267.612 173.32 254.119 171.633 252.432 171.633Z" fill="white"/>
<path d="M274.623 171.549C272.942 171.549 267.901 171.549 266.641 169.875C265.38 168.202 264.96 166.529 265.8 164.856C266.641 163.182 267.982 162.464 269.669 161.429C269.669 161.429 271.441 160.483 272.522 160.394C273.604 160.304 278.824 161.509 280.505 163.182C282.185 164.856 281.345 165.413 280.505 167.644C279.664 169.875 276.303 171.549 274.623 171.549Z" fill="#D94100"/>
<path d="M274.943 164.668C275.253 165.166 276.182 166.66 275.841 167.389C275.501 168.119 275.006 168.6 274.278 168.707C273.551 168.814 273.058 168.57 272.393 168.29C272.393 168.29 271.742 167.967 271.512 167.665C271.283 167.364 270.733 165.56 270.996 164.706C271.259 163.852 271.604 163.982 272.523 163.756C273.441 163.53 274.633 164.17 274.943 164.668Z" fill="black"/>
<path d="M75.3375 182.315C66.3422 177.255 51.1626 166.573 50.6004 162.076C50.0382 157.578 60.1579 141.274 70.8398 136.776C81.5217 132.279 100.637 125.532 103.448 124.97C106.259 124.408 121.438 127.781 130.434 128.343C139.429 128.905 154.046 125.532 162.479 128.343C170.913 131.154 183.281 142.398 186.654 150.269C190.028 158.14 195.087 167.698 191.152 172.195C187.217 176.693 166.977 189.062 157.982 191.31C148.986 193.559 124.249 195.808 109.07 191.31C93.8903 186.813 84.3328 187.375 75.3375 182.315Z" fill="#D94100"/>
<path d="M70.2776 167.135C70.2776 167.135 106.259 154.767 112.443 153.643C117.902 152.65 127.743 149.905 132.682 149.275M151.797 149.145C151.797 149.145 138.305 149.145 134.369 149.145C133.908 149.145 133.338 149.191 132.682 149.275M132.682 149.275C132.682 149.275 135.494 150.269 138.305 151.394C141.116 152.518 146.175 153.643 146.175 153.643" stroke="#240000" stroke-linecap="round"/>
<path d="M91.0793 170.509C89.3926 170.509 84.895 168.822 86.5816 166.573C88.2682 164.324 105.134 156.454 108.508 155.329C111.881 154.205 119.752 152.518 124.249 152.518C128.747 152.518 136.618 153.642 139.429 155.329C142.24 157.016 146.175 162.638 148.424 163.762C150.673 164.887 157.982 167.135 159.668 168.822C161.355 170.509 164.166 175.569 163.042 176.693C161.917 177.817 159.106 177.817 157.42 177.817C155.733 177.817 146.738 173.32 143.927 172.758C141.116 172.195 129.309 175.006 125.936 175.006C122.563 175.006 113.005 175.569 110.756 175.006C108.508 174.444 105.134 171.071 102.323 170.509C99.5124 169.946 92.7659 170.509 91.0793 170.509Z" fill="#471500"/>
<path d="M100.637 168.822C97.8257 167.698 93.8903 167.135 95.0147 164.887C96.1391 162.638 110.194 156.454 113.568 155.329C116.941 154.205 119.752 153.643 124.812 153.643C129.871 153.643 135.494 155.891 138.867 157.578C142.24 159.265 151.235 167.698 152.36 168.822C153.484 169.946 152.36 173.32 150.111 173.32C147.862 173.32 146.738 172.195 143.927 172.195C141.116 172.195 134.369 173.32 132.12 173.32H118.065C115.816 173.32 112.443 172.758 109.07 172.195C105.697 171.633 103.448 169.946 100.637 168.822Z" fill="white"/>
<path d="M115.816 157.578C113.568 158.14 110.756 162.076 110.756 164.324C110.756 166.573 118.627 169.946 122.001 169.946C125.374 169.946 129.309 167.698 129.871 166.573C130.434 165.449 129.309 160.389 127.06 158.702C124.812 157.016 118.065 157.016 115.816 157.578Z" fill="#2656FF"/>
<path d="M121.621 166.389C122.339 166.388 123.636 165.165 123.912 164.315C124.189 163.465 122.332 161.449 121.358 161.132C120.385 160.815 118.971 161.295 118.671 161.667C118.37 162.039 118.071 164.057 118.513 164.906C118.954 165.755 120.902 166.39 121.621 166.389Z" fill="black"/>
<path d="M227.55 211.522C224.168 205.391 223.041 204.71 219.095 198.58C215.149 192.449 216.277 187 211.204 187C206.131 187 204.44 205.391 197.676 217.652C190.912 229.913 179.639 228.551 171.185 240.812C162.73 253.072 163.293 267.377 155.402 283.043C147.511 298.71 137.365 289.174 127.22 297.348C117.074 305.522 109.183 313.696 108.055 318.464C106.928 323.232 123.274 328 131.729 328C140.184 328 138.493 322.551 155.402 316.42C172.312 310.29 230.932 309.609 236.568 303.478C242.205 297.348 241.077 289.174 240.514 277.594C239.95 266.014 238.823 261.928 236.568 253.072C234.314 244.217 234.877 238.768 233.186 232.638C231.495 226.507 230.932 217.652 227.55 211.522Z" fill="#2656FF"/>
<path d="M6.74829 105.855C6.74829 105.855 34.8586 81.1179 42.1673 67.0627C49.476 53.0076 53.9736 26.0217 62.9689 11.4043C71.9642 -3.21306 98.9501 1.84679 98.9501 1.84679" stroke="white" stroke-linecap="round"/>
</svg>
