<svg width="34" height="34" viewBox="0 0 34 34" fill="none" xmlns="http://www.w3.org/2000/svg">
<g clip-path="url(#clip0_56_5)">
<rect x="4" y="12" width="26" height="21" fill="#FFF97D"/>
<path d="M16.412 1.16745L2.44374 9.98551C1.88931 10.3355 1.84698 11.0694 2.35878 11.4702C2.79506 11.8118 3.35239 12 3.92817 12H30.0718C30.6476 12 31.205 11.8119 31.6412 11.4702C32.1527 11.0696 32.1111 10.3357 31.5563 9.98551L17.5879 1.16745C17.2343 0.944183 16.7656 0.944183 16.412 1.16745Z" fill="#FFE49C"/>
<rect x="6" y="13" width="22" height="21" fill="#FBFBFB"/>
<path d="M30.1022 34H4.37005C3.0632 34 2 32.9081 2 31.566V14.0981C2 13.388 2.30085 12.7152 2.82561 12.2521C3.17634 11.9425 3.68639 11.9153 4.06634 12.1859L31.5632 31.7636C32.1089 32.1521 32.1506 32.9668 31.6469 33.4118C31.2175 33.7911 30.669 34 30.1022 34Z" fill="#FFD155"/>
<path d="M31.0984 32.1072L16.8889 22.2557V34.2669H29.6494C30.2115 34.2669 30.7555 34.0651 31.1814 33.6989C31.6811 33.2691 31.6397 32.4824 31.0984 32.1072Z" fill="#FFBE00"/>
<path d="M29.9506 33.763L16.3149 24.3094C15.7377 23.9093 15.7373 23.0539 16.3149 22.6537L29.9506 13.2001C30.3273 12.9389 30.8333 12.965 31.1812 13.2641C31.7016 13.7114 32 14.3612 32 15.0468V31.9163C32 32.602 31.7016 33.2518 31.1812 33.699C30.833 33.9984 30.327 34.0241 29.9506 33.763Z" fill="#FFBE00"/>
<path d="M31.133 12.256C30.7646 11.9415 30.2289 11.9141 29.83 12.1888L16 21.711V24.289L29.83 33.8112C30.2285 34.0858 30.7644 34.0587 31.133 33.744C31.6841 33.2737 32 32.5904 32 31.8694V14.1306C32 13.4096 31.6841 12.7264 31.133 12.256Z" fill="#FFAF00"/>
<path d="M16.412 22.8325L2.44374 14.0145C1.88931 13.6645 1.84698 12.9306 2.35878 12.5298C2.79506 12.1882 3.35239 12 3.92817 12H30.0718C30.6476 12 31.205 12.1881 31.6412 12.5298C32.1527 12.9304 32.1111 13.6643 31.5563 14.0145L17.5879 22.8325C17.2343 23.0558 16.7656 23.0558 16.412 22.8325Z" fill="#FFE49C"/>
</g>
<defs>
<clipPath id="clip0_56_5">
<rect width="34" height="34" fill="white"/>
</clipPath>
</defs>
</svg>
