<svg width="34" height="34" viewBox="0 0 34 34" fill="none" xmlns="http://www.w3.org/2000/svg">
<path d="M17 34C26.3888 34 34 26.3888 34 17C34 7.61116 26.3888 0 17 0C7.61116 0 0 7.61116 0 17C0 26.3888 7.61116 34 17 34Z" fill="url(#paint0_linear_52_2)"/>
<path d="M25.9841 10.3815C26.132 9.46094 25.2226 8.73434 24.3722 9.09371L7.43322 16.2512C6.82333 16.5089 6.86795 17.3981 7.50049 17.5919L10.9937 18.6625C11.6605 18.8669 12.3823 18.7611 12.9646 18.3741L20.8403 13.1375C21.0778 12.9795 21.3367 13.3046 21.1337 13.5058L15.4646 19.131C14.9147 19.6767 15.0238 20.6014 15.6854 21.0006L22.0325 24.8312C22.7444 25.2608 23.6602 24.8293 23.7934 24.0013L25.9841 10.3815Z" fill="white"/>
<defs>
<linearGradient id="paint0_linear_52_2" x1="17" y1="0" x2="17" y2="34" gradientUnits="userSpaceOnUse">
<stop stop-color="#37BBFE"/>
<stop offset="1" stop-color="#007DBB"/>
</linearGradient>
</defs>
</svg>
